<svg width="1254" height="120" viewBox="0 0 1254 120" fill="none" xmlns="http://www.w3.org/2000/svg">
<path d="M27.55 117H0.7L37.9 3.3H68.05L105.25 117H78.4L69.7 87.9H36.25L27.55 117ZM52.9 32.25L42.55 66.9H63.4L52.9 32.25ZM126.004 117V3.3H179.104C199.354 3.3 213.154 16.2 213.154 35.4C213.154 47.55 206.854 57.45 196.804 62.55C207.604 65.1 213.154 71.55 213.154 82.65V109.05L215.104 117H190.654L187.804 109.05V84.15C187.804 78.45 185.404 74.25 176.404 74.25H151.204V117H126.004ZM151.204 53.25H171.304C181.804 53.25 187.054 48 187.054 39.15C187.054 29.7 182.104 24.45 171.304 24.45H151.204V53.25ZM286.928 119.4C253.028 119.4 236.828 94.65 236.828 60.15C236.828 25.5 253.028 0.899993 286.928 0.899993C313.028 0.899993 332.978 18.75 333.428 45H310.778C308.978 32.85 299.978 24.45 288.728 24.45C269.828 24.45 262.778 43.2 262.778 60.15C262.778 77.1 269.828 95.85 288.728 95.85C299.978 95.85 308.978 87.45 310.778 75.3H333.428C332.978 101.55 313.028 119.4 286.928 119.4ZM358.082 3.3H383.282V48.9H427.982V3.3H453.332V117H427.982V69.9H383.282V117H358.082V3.3ZM507.085 117H481.885V3.3H507.085V117ZM527.868 3.3H614.868V24.45H583.968V117H558.768V24.45H527.868V3.3ZM635.594 117V3.3L711.194 3.45V24.45H660.794V49.65H705.194V70.65H660.794V95.85H711.194V117H635.594ZM782.016 119.4C748.116 119.4 731.916 94.65 731.916 60.15C731.916 25.5 748.116 0.899993 782.016 0.899993C808.116 0.899993 828.066 18.75 828.516 45H805.866C804.066 32.85 795.066 24.45 783.816 24.45C764.916 24.45 757.866 43.2 757.866 60.15C757.866 77.1 764.916 95.85 783.816 95.85C795.066 95.85 804.066 87.45 805.866 75.3H828.516C828.066 101.55 808.116 119.4 782.016 119.4ZM845.37 3.3H932.37V24.45H901.47V117H876.27V24.45H845.37V3.3ZM951.896 77.1V3.3H977.096V77.1C977.096 86.55 982.346 97.05 993.746 97.05C1005.15 97.05 1010.25 86.55 1010.25 77.1V3.3H1035.6V77.1C1035.6 103.35 1020.15 119.4 993.746 119.4C967.346 119.4 951.896 103.35 951.896 77.1ZM1062.84 117V3.3H1115.94C1136.19 3.3 1149.99 16.2 1149.99 35.4C1149.99 47.55 1143.69 57.45 1133.64 62.55C1144.44 65.1 1149.99 71.55 1149.99 82.65V109.05L1151.94 117H1127.49L1124.64 109.05V84.15C1124.64 78.45 1122.24 74.25 1113.24 74.25H1088.04V117H1062.84ZM1088.04 53.25H1108.14C1118.64 53.25 1123.89 48 1123.89 39.15C1123.89 29.7 1118.94 24.45 1108.14 24.45H1088.04V53.25ZM1177.41 117V3.3L1253.01 3.45V24.45H1202.61V49.65H1247.01V70.65H1202.61V95.85H1253.01V117H1177.41Z" fill="#F26A45"/>
</svg>
