<svg width="106" height="32" viewBox="0 0 106 32" fill="none" xmlns="http://www.w3.org/2000/svg">
<path d="M15.04 31H2.98023e-08V0.679999H14.32C19.44 0.679999 23.04 3.96 23.04 8.64C23.04 11.48 21.84 13.8 19.8 15.2C22.44 16.6 24.12 19.2 24.12 22.44C24.12 27.56 20.44 31 15.04 31ZM6.72 25.36H12.96C15.84 25.36 17.16 23.96 17.16 21.44C17.16 19.08 15.76 17.68 12.96 17.68H6.72V25.36ZM6.72 12.08H12.52C14.92 12.08 16.12 11 16.12 9.12C16.12 7.36 14.88 6.32 12.52 6.32H6.72V12.08ZM32.1503 31H24.9903L34.9103 0.679999H42.9503L52.8703 31H45.7103L43.3903 23.24H34.4703L32.1503 31ZM38.9103 8.4L36.1503 17.64H41.7103L38.9103 8.4ZM65.8756 31.64C56.8356 31.64 52.5156 25.04 52.5156 15.84C52.5156 6.6 56.8356 0.0399981 65.8756 0.0399981C72.8356 0.0399981 78.1556 4.8 78.2756 11.8H72.2356C71.7556 8.56 69.3556 6.32 66.3556 6.32C61.3156 6.32 59.4356 11.32 59.4356 15.84C59.4356 20.36 61.3156 25.36 66.3556 25.36C69.3556 25.36 71.7556 23.12 72.2356 19.88H78.2756C78.1556 26.88 72.8356 31.64 65.8756 31.64ZM81.25 31V0.679999H87.97V11.44L96.81 0.679999H105.49L94.85 12.68L105.97 31H98.13L90.17 17.92L87.97 20.36V31H81.25Z" fill="white"/>
</svg>
