<svg width="867" height="143" viewBox="0 0 867 143" fill="none" xmlns="http://www.w3.org/2000/svg">
<path d="M60.62 142.88C19.94 142.88 0.5 113.18 0.5 71.78C0.5 30.2 19.94 0.679991 60.62 0.679991C91.94 0.679991 115.88 22.1 116.42 53.6H89.24C87.08 39.02 76.28 28.94 62.78 28.94C40.1 28.94 31.64 51.44 31.64 71.78C31.64 92.12 40.1 114.62 62.78 114.62C76.28 114.62 87.08 104.54 89.24 89.96H116.42C115.88 121.46 91.94 142.88 60.62 142.88ZM216.925 140H129.805V3.56H160.045V114.62H216.925V140ZM225.957 140V3.56L316.677 3.73999V28.94H256.197V59.18H309.477V84.38H256.197V114.62H316.677V140H225.957ZM353.934 140H321.714L366.354 3.56H402.534L447.174 140H414.954L404.514 105.08H364.374L353.934 140ZM384.354 38.3L371.934 79.88H396.954L384.354 38.3ZM455.879 140V3.56H488.819L531.839 89.06V3.56H562.079V140H529.139L486.119 54.5V140H455.879ZM610.572 140H580.332V3.56H610.572V140ZM628.672 140V3.56H661.612L704.632 89.06V3.56H734.872V140H701.932L658.912 54.5V140H628.672ZM839.885 129.38C832.685 138.02 821.885 142.88 806.405 142.88C769.505 142.88 748.625 113.18 748.625 71.78C748.625 30.2 768.425 0.679991 809.105 0.679991C840.425 0.679991 864.005 22.1 864.545 53.6H837.365C835.205 39.02 824.765 28.94 811.265 28.94C788.585 28.94 779.765 51.44 779.765 71.78C779.765 92.12 788.225 114.62 810.545 114.62C825.125 114.62 835.745 105.98 839.165 93.56H801.905V68.18H866.705V140H843.485L839.885 129.38Z" fill="white"/>
</svg>
