<svg width="86" height="87" viewBox="0 0 86 87" fill="none" xmlns="http://www.w3.org/2000/svg">
<path fill-rule="evenodd" clip-rule="evenodd" d="M4.42677 0.742016C3.46368 -0.247339 1.9022 -0.247339 0.939114 0.742016C-0.0239756 1.73137 -0.0239756 3.33543 0.939114 4.32479L39.3356 43.7685L1.53531 82.5997C0.572216 83.5891 0.572216 85.1931 1.53531 86.1825C2.4984 87.1718 4.05987 87.1718 5.02296 86.1825L42.8233 47.3512L80.4227 85.9761C81.3858 86.9654 82.9473 86.9654 83.9104 85.9761C84.8735 84.9867 84.8735 83.3826 83.9104 82.3933L46.311 43.7685L84.5065 4.53122C85.4696 3.54186 85.4696 1.9378 84.5065 0.948445C83.5435 -0.0409105 81.982 -0.0409123 81.0189 0.948445L42.8233 40.1857L4.42677 0.742016Z" fill="white"/>
</svg>
