<svg width="1007" height="120" viewBox="0 0 1007 120" fill="none" xmlns="http://www.w3.org/2000/svg">
<path d="M50.85 119.4C16.95 119.4 0.75 94.65 0.75 60.15C0.75 25.5 16.95 0.899993 50.85 0.899993C76.95 0.899993 96.9 18.75 97.35 45H74.7C72.9 32.85 63.9 24.45 52.65 24.45C33.75 24.45 26.7 43.2 26.7 60.15C26.7 77.1 33.75 95.85 52.65 95.85C63.9 95.85 72.9 87.45 74.7 75.3H97.35C96.9 101.55 76.95 119.4 50.85 119.4ZM174.054 0.899993C210.054 0.899993 230.454 27.6 230.454 60.15C230.454 92.4 209.604 119.4 174.054 119.4C138.504 119.4 117.654 92.4 117.654 60.15C117.654 27.9 138.504 0.899993 174.054 0.899993ZM174.054 97.05C194.904 97.05 204.354 77.7 204.354 60.15C204.354 42.6 194.904 23.25 174.054 23.25C153.054 23.25 143.604 42.6 143.604 60.15C143.604 77.7 153.054 97.05 174.054 97.05ZM254.596 117V3.3H307.696C327.946 3.3 341.746 16.2 341.746 35.4C341.746 47.55 335.446 57.45 325.396 62.55C336.196 65.1 341.746 71.55 341.746 82.65V109.05L343.696 117H319.246L316.396 109.05V84.15C316.396 78.45 313.996 74.25 304.996 74.25H279.796V117H254.596ZM279.796 53.25H299.896C310.396 53.25 315.646 48 315.646 39.15C315.646 29.7 310.696 24.45 299.896 24.45H279.796V53.25ZM394.37 117H369.17V3.3H422.27C442.52 3.3 456.32 17.7 456.32 39.3C456.32 59.85 442.22 74.25 422.27 74.25H394.37V117ZM394.37 24.45V53.25H414.47C424.97 53.25 430.22 48 430.22 39.15C430.22 29.7 425.27 24.45 414.47 24.45H394.37ZM531.107 0.899993C567.107 0.899993 587.507 27.6 587.507 60.15C587.507 92.4 566.657 119.4 531.107 119.4C495.557 119.4 474.707 92.4 474.707 60.15C474.707 27.9 495.557 0.899993 531.107 0.899993ZM531.107 97.05C551.957 97.05 561.407 77.7 561.407 60.15C561.407 42.6 551.957 23.25 531.107 23.25C510.107 23.25 500.657 42.6 500.657 60.15C500.657 77.7 510.107 97.05 531.107 97.05ZM611.648 117V3.3H664.748C684.998 3.3 698.798 16.2 698.798 35.4C698.798 47.55 692.498 57.45 682.448 62.55C693.248 65.1 698.798 71.55 698.798 82.65V109.05L700.748 117H676.298L673.448 109.05V84.15C673.448 78.45 671.048 74.25 662.048 74.25H636.848V117H611.648ZM636.848 53.25H656.948C667.448 53.25 672.698 48 672.698 39.15C672.698 29.7 667.748 24.45 656.948 24.45H636.848V53.25ZM745.273 117H718.423L755.623 3.3H785.773L822.973 117H796.123L787.423 87.9H753.973L745.273 117ZM770.623 32.25L760.273 66.9H781.123L770.623 32.25ZM823.329 3.3H910.329V24.45H879.429V117H854.229V24.45H823.329V3.3ZM931.055 117V3.3L1006.65 3.45V24.45H956.255V49.65H1000.65V70.65H956.255V95.85H1006.65V117H931.055Z" fill="white"/>
</svg>
