<svg width="1154" height="80" viewBox="0 0 1154 80" fill="none" xmlns="http://www.w3.org/2000/svg">
<path d="M29.2 78H7.45058e-08V2.2L29.2 2.3C47.8 2.3 60.7 17.6 60.7 39.6C60.7 62.6 48.1 78 29.2 78ZM43.4 39.6C43.4 27.4 37.1 17.6 26.4 17.6H16.8V62.6H26.4C37.4 62.6 43.4 52.9 43.4 39.6ZM68.0664 78V2.09999L118.466 2.2L163.266 2.09999C176.866 2.09999 185.966 11.8 185.966 26.1C185.966 39.9 176.666 49.5 163.266 49.5H144.766V78H127.866V35.4H158.066C165.066 35.4 168.666 31.9 168.666 26.1C168.666 19.7 165.266 16.2 158.066 16.2L118.466 16.3H84.8664V33H114.466V47.1H84.8664V63.9H118.466V78H68.0664ZM197.759 78H179.859L204.659 2.2H224.759L249.559 78H231.659L225.859 58.6H203.559L197.759 78ZM214.659 21.5L207.759 44.6H221.659L214.659 21.5ZM282.418 31.7C292.118 34.3 310.918 36.9 310.918 55.1C310.918 71.9 295.518 79.6 280.618 79.6C262.618 79.6 252.118 70.5 250.818 55.6H266.018C266.918 62.2 271.718 64.7 281.518 64.7C289.218 64.7 293.618 62.4 293.618 57.8C293.618 52.4 289.118 51.1 279.818 48.5C267.818 45.1 251.318 42.9 251.318 25.1C251.318 8.4 266.018 0.599995 280.918 0.599995C300.718 0.599995 307.918 11.9 308.718 24.6H293.618C292.918 17.9 288.818 15.5 280.318 15.5C273.318 15.5 268.718 18 268.718 22.4C268.718 27.2 272.018 28.9 282.418 31.7ZM335.159 78H318.359V2.2H335.159V78ZM345.215 78V2.2H369.815L381.815 49.5L393.815 2.2H418.315V78H401.515V28.7L389.015 78H374.515L362.015 28.7V78H345.215ZM492.122 0.599995C516.122 0.599995 529.722 18.4 529.722 40.1C529.722 61.6 515.822 79.6 492.122 79.6C468.422 79.6 454.522 61.6 454.522 40.1C454.522 18.6 468.422 0.599995 492.122 0.599995ZM492.122 64.7C506.022 64.7 512.322 51.8 512.322 40.1C512.322 28.4 506.022 15.5 492.122 15.5C478.122 15.5 471.822 28.4 471.822 40.1C471.822 51.8 478.122 64.7 492.122 64.7ZM536.816 78V2.2H572.216C585.716 2.2 594.916 10.8 594.916 23.6C594.916 31.7 590.716 38.3 584.016 41.7C591.216 43.4 594.916 47.7 594.916 55.1V72.7L596.216 78H579.916L578.016 72.7V56.1C578.016 52.3 576.416 49.5 570.416 49.5H553.616V78H536.816ZM553.616 35.5H567.016C574.016 35.5 577.516 32 577.516 26.1C577.516 19.8 574.216 16.3 567.016 16.3H553.616V35.5ZM620.999 78H604.199V2.2H620.999V78ZM628.155 63.8L659.955 16.2H628.555V2.2H679.955V16.4L648.255 64H679.955V78H628.155V63.8ZM719.954 0.599995C743.954 0.599995 757.554 18.4 757.554 40.1C757.554 61.6 743.654 79.6 719.954 79.6C696.254 79.6 682.354 61.6 682.354 40.1C682.354 18.6 696.254 0.599995 719.954 0.599995ZM719.954 64.7C733.854 64.7 740.154 51.8 740.154 40.1C740.154 28.4 733.854 15.5 719.954 15.5C705.954 15.5 699.654 28.4 699.654 40.1C699.654 51.8 705.954 64.7 719.954 64.7ZM764.648 78V2.2H782.948L806.848 49.7V2.2H823.648V78H805.348L781.448 30.5V78H764.648ZM828.589 2.2H886.589V16.3H865.989V78H849.189V16.3H828.589V2.2ZM890.606 51.4V2.2H907.406V51.4C907.406 57.7 910.906 64.7 918.506 64.7C926.106 64.7 929.506 57.7 929.506 51.4V2.2H946.406V51.4C946.406 68.9 936.106 79.6 918.506 79.6C900.906 79.6 890.606 68.9 890.606 51.4ZM955.566 78V2.2H990.966C1004.47 2.2 1013.67 10.8 1013.67 23.6C1013.67 31.7 1009.47 38.3 1002.77 41.7C1009.97 43.4 1013.67 47.7 1013.67 55.1V72.7L1014.97 78H998.666L996.766 72.7V56.1C996.766 52.3 995.166 49.5 989.166 49.5H972.366V78H955.566ZM972.366 35.5H985.766C992.766 35.5 996.266 32 996.266 26.1C996.266 19.8 992.966 16.3 985.766 16.3H972.366V35.5ZM1039.75 78H1022.95V2.2H1039.75V78ZM1098.2 78H1049.8V2.2H1066.6V63.9H1098.2V78ZM1103.22 78V2.2L1153.62 2.3V16.3H1120.02V33.1H1149.62V47.1H1120.02V63.9H1153.62V78H1103.22Z" fill="white"/>
</svg>
