<svg width="1399" height="189" viewBox="0 0 1399 189" fill="none" xmlns="http://www.w3.org/2000/svg">
<path d="M29.2 78H7.45058e-08V2.2L29.2 2.3C47.8 2.3 60.7 17.6 60.7 39.6C60.7 62.6 48.1 78 29.2 78ZM43.4 39.6C43.4 27.4 37.1 17.6 26.4 17.6H16.8V62.6H26.4C37.4 62.6 43.4 52.9 43.4 39.6ZM68.0664 78V2.2L118.466 2.3V16.3H84.8664V33.1H114.466V47.1H84.8664V63.9H118.466V78H68.0664ZM155.465 31.7C165.165 34.3 183.965 36.9 183.965 55.1C183.965 71.9 168.565 79.6 153.665 79.6C135.665 79.6 125.165 70.5 123.865 55.6H139.065C139.965 62.2 144.765 64.7 154.565 64.7C162.265 64.7 166.665 62.4 166.665 57.8C166.665 52.4 162.165 51.1 152.865 48.5C140.865 45.1 124.365 42.9 124.365 25.1C124.365 8.4 139.065 0.599995 153.965 0.599995C173.765 0.599995 180.965 11.9 181.765 24.6H166.665C165.965 17.9 161.865 15.5 153.365 15.5C146.365 15.5 141.765 18 141.765 22.4C141.765 27.2 145.065 28.9 155.465 31.7ZM208.206 78H191.406V2.2H226.806C240.306 2.2 249.506 11.8 249.506 26.2C249.506 39.9 240.106 49.5 226.806 49.5H208.206V78ZM208.206 16.3V35.5H221.606C228.606 35.5 232.106 32 232.106 26.1C232.106 19.8 228.806 16.3 221.606 16.3H208.206ZM255.664 78V2.2H291.064C304.564 2.2 313.764 10.8 313.764 23.6C313.764 31.7 309.564 38.3 302.864 41.7C310.064 43.4 313.764 47.7 313.764 55.1V72.7L315.064 78H298.764L296.864 72.7V56.1C296.864 52.3 295.264 49.5 289.264 49.5H272.464V78H255.664ZM272.464 35.5H285.864C292.864 35.5 296.364 32 296.364 26.1C296.364 19.8 293.064 16.3 285.864 16.3H272.464V35.5ZM323.047 78V2.2L373.447 2.3V16.3H339.847V33.1H369.447V47.1H339.847V63.9H373.447V78H323.047ZM410.449 78V2.2H428.749L452.649 49.7V2.2H469.449V78H451.149L427.249 30.5V78H410.449ZM514.29 0.599995C538.29 0.599995 551.89 18.4 551.89 40.1C551.89 61.6 537.99 79.6 514.29 79.6C490.59 79.6 476.69 61.6 476.69 40.1C476.69 18.6 490.59 0.599995 514.29 0.599995ZM514.29 64.7C528.19 64.7 534.49 51.8 534.49 40.1C534.49 28.4 528.19 15.5 514.29 15.5C500.29 15.5 493.99 28.4 493.99 40.1C493.99 51.8 500.29 64.7 514.29 64.7ZM575.784 78H558.984V2.2H575.784V78ZM584.84 75.9V60.4H600.24V75.9H584.84ZM584.84 39.3V23.9H600.24V39.3H584.84ZM29.2 187H7.45058e-08V111.2L29.2 111.3C47.8 111.3 60.7 126.6 60.7 148.6C60.7 171.6 48.1 187 29.2 187ZM43.4 148.6C43.4 136.4 37.1 126.6 26.4 126.6H16.8V171.6H26.4C37.4 171.6 43.4 161.9 43.4 148.6ZM68.0664 187V111.2L118.466 111.3V125.3H84.8664V142.1H114.466V156.1H84.8664V172.9H118.466V187H68.0664ZM203.869 187H155.469V111.2H172.269V172.9H203.869V187ZM222.466 187H204.566L229.366 111.2H249.466L274.266 187H256.366L250.566 167.6H228.266L222.466 187ZM239.366 130.5L232.466 153.6H246.366L239.366 130.5ZM324.905 187H308.105V111.2H343.505C357.005 111.2 366.205 120.8 366.205 135.2C366.205 148.9 356.805 158.5 343.505 158.5H324.905V187ZM324.905 125.3V144.5H338.305C345.305 144.5 348.805 141 348.805 135.1C348.805 128.8 345.505 125.3 338.305 125.3H324.905ZM420.763 187H372.363V111.2H389.163V172.9H420.763V187ZM439.36 187H421.46L446.26 111.2H466.36L491.16 187H473.26L467.46 167.6H445.16L439.36 187ZM456.26 130.5L449.36 153.6H463.26L456.26 130.5ZM495.996 187V111.2H514.296L538.196 158.7V111.2H554.996V187H536.696L512.796 139.5V187H495.996ZM564.337 160.4V111.2H581.137V160.4C581.137 166.7 584.637 173.7 592.237 173.7C599.837 173.7 603.237 166.7 603.237 160.4V111.2H620.137V160.4C620.137 177.9 609.837 188.6 592.237 188.6C574.637 188.6 564.337 177.9 564.337 160.4ZM629.297 187V111.2H664.697C678.197 111.2 687.397 119.8 687.397 132.6C687.397 140.7 683.197 147.3 676.497 150.7C683.697 152.4 687.397 156.7 687.397 164.1V181.7L688.697 187H672.397L670.497 181.7V165.1C670.497 161.3 668.897 158.5 662.897 158.5H646.097V187H629.297ZM646.097 144.5H659.497C666.497 144.5 669.997 141 669.997 135.1C669.997 128.8 666.697 125.3 659.497 125.3H646.097V144.5ZM713.48 187H696.68V111.2H713.48V187ZM800.939 187H752.539V111.2H769.339V172.9H800.939V187ZM819.536 187H801.636L826.436 111.2H846.536L871.336 187H853.436L847.636 167.6H825.336L819.536 187ZM836.436 130.5L829.536 153.6H843.436L836.436 130.5ZM905.176 187V111.2H940.576C954.076 111.2 963.276 119.8 963.276 132.6C963.276 140.7 959.076 147.3 952.376 150.7C959.576 152.4 963.276 156.7 963.276 164.1V181.7L964.576 187H948.276L946.376 181.7V165.1C946.376 161.3 944.776 158.5 938.776 158.5H921.976V187H905.176ZM921.976 144.5H935.376C942.376 144.5 945.876 141 945.876 135.1C945.876 128.8 942.576 125.3 935.376 125.3H921.976V144.5ZM972.559 187V111.2L1022.96 111.3V125.3H989.359V142.1H1018.96V156.1H989.359V172.9H1022.96V187H972.559ZM1043.66 187H1025.76L1050.56 111.2H1070.66L1095.46 187H1077.56L1071.76 167.6H1049.46L1043.66 187ZM1060.56 130.5L1053.66 153.6H1067.56L1060.56 130.5ZM1148.69 187H1100.29V111.2H1117.09V172.9H1148.69V187ZM1170.51 187H1153.71V111.2H1170.51V187ZM1175.37 111.2H1233.37V125.3H1212.77V187H1195.97V125.3H1175.37V111.2ZM1242.49 187H1224.59L1249.39 111.2H1269.49L1294.29 187H1276.39L1270.59 167.6H1248.29L1242.49 187ZM1259.39 130.5L1252.49 153.6H1266.39L1259.39 130.5ZM1285.52 111.2H1343.52V125.3H1322.92V187H1306.12V125.3H1285.52V111.2ZM1348.34 187V111.2L1398.74 111.3V125.3H1365.14V142.1H1394.74V156.1H1365.14V172.9H1398.74V187H1348.34Z" fill="white"/>
</svg>
