<svg width="1592" height="564" viewBox="0 0 1592 564" fill="none" xmlns="http://www.w3.org/2000/svg">
<path d="M0.68 0.439995H59.24L104.68 169.08L149.16 0.439995H195.56L240.36 169.08L285.48 0.439995H344.36L273.96 243H213.48L172.52 88.12L131.24 243H71.08L0.68 0.439995ZM360.125 243V0.439995L521.405 0.759991V45.56H413.885V99.32H508.605V144.12H413.885V197.88H521.405V243H360.125ZM680.453 243H623.172L702.533 0.439995H766.853L846.213 243H788.933L770.373 180.92H699.013L680.453 243ZM734.533 62.2L712.453 136.12H756.933L734.533 62.2ZM861.688 243V0.439995H974.968C1018.17 0.439995 1047.61 27.96 1047.61 68.92C1047.61 94.84 1034.17 115.96 1012.73 126.84C1035.77 132.28 1047.61 146.04 1047.61 169.72V226.04L1051.77 243H999.608L993.528 226.04V172.92C993.528 160.76 988.408 151.8 969.208 151.8H915.448V243H861.688ZM915.448 107H958.328C980.728 107 991.928 95.8 991.928 76.92C991.928 56.76 981.368 45.56 958.328 45.56H915.448V107ZM1077.31 243V0.439995L1238.59 0.759991V45.56H1131.07V99.32H1225.79V144.12H1131.07V197.88H1238.59V243H1077.31ZM1397.64 243H1340.36L1419.72 0.439995H1484.04L1563.4 243H1506.12L1487.56 180.92H1416.2L1397.64 243ZM1451.72 62.2L1429.64 136.12H1474.12L1451.72 62.2Z" fill="white"/>
<path d="M17 485V242.44L178.28 242.76V287.56H70.76V347.72H165.48V392.52H70.76V485H17ZM641.64 242.44H722.92V485H669.16V288.2L573.16 485H523.24L427.24 288.2V485H326.12L271.72 304.2L217.64 485H160.36L239.72 242.44H304.04L373.48 454.92V242.44H454.76L548.2 433.8L641.64 242.44ZM808.885 485H755.125V242.44H808.885V485ZM995.943 485H841.063V242.44H894.823V439.88H995.943V485ZM1047.43 393.16L956.55 242.44H1019.27L1074.31 338.12L1129.03 242.44H1192.07L1101.19 393.16V485H1047.43V393.16Z" fill="#CCE716"/>
</svg>
