<svg width="235" height="27" viewBox="0 0 235 27" fill="none" xmlns="http://www.w3.org/2000/svg">
<path d="M0.75 27V0.434998L25.425 0.469999H44.22V5.405H6.63V11.25H22.625V16.185H6.63V27H0.75ZM25.425 27V22.065H44.22V27H25.425ZM25.425 16.185V11.25H44.22V16.185H25.425ZM48.0027 27V0.469999H60.3927C65.1177 0.469999 68.3377 3.48 68.3377 7.96C68.3377 10.795 66.8677 13.105 64.5227 14.295C67.0427 14.89 68.3377 16.395 68.3377 18.985V25.145L68.7927 27H63.0877L62.4227 25.145V19.335C62.4227 18.005 61.8627 17.025 59.7627 17.025H53.8827V27H48.0027ZM53.8827 12.125H58.5727C61.0227 12.125 62.2477 10.9 62.2477 8.835C62.2477 6.63 61.0927 5.405 58.5727 5.405H53.8827V12.125ZM76.7317 27H70.4667L79.1467 0.469999H86.1817L94.8617 27H88.5967L86.5667 20.21H78.7617L76.7317 27ZM82.6467 7.225L80.2317 15.31H85.0967L82.6467 7.225ZM97.2543 27V0.469999H103.659L112.024 17.095V0.469999H117.904V27H111.499L103.134 10.375V27H97.2543ZM132.374 27H122.154V0.469999L132.374 0.504999C138.884 0.504999 143.399 5.86 143.399 13.56C143.399 21.61 138.989 27 132.374 27ZM137.344 13.56C137.344 9.29 135.139 5.86 131.394 5.86H128.034V21.61H131.394C135.244 21.61 137.344 18.215 137.344 13.56ZM149.994 27H143.729L152.409 0.469999H159.444L168.124 27H161.859L159.829 20.21H152.024L149.994 27ZM155.909 7.225L153.494 15.31H158.359L155.909 7.225ZM187.456 27H170.516V0.469999H176.396V22.065H187.456V27ZM189.913 27V0.469999L207.553 0.504999V5.405H195.793V11.285H206.153V16.185H195.793V22.065H207.553V27H189.913ZM209.302 27L218.367 13.735L209.302 0.469999H216.232L221.797 9.29L227.362 0.469999H234.292L225.227 13.735L234.292 27H227.362L221.797 18.145L216.232 27H209.302Z" fill="#0F172A"/>
</svg>
