<svg width="820" height="143" viewBox="0 0 820 143" fill="none" xmlns="http://www.w3.org/2000/svg">
<path d="M91.76 129.38C84.56 138.02 73.76 142.88 58.28 142.88C21.38 142.88 0.5 113.18 0.5 71.78C0.5 30.2 20.3 0.679991 60.98 0.679991C92.3 0.679991 115.88 22.1 116.42 53.6H89.24C87.08 39.02 76.64 28.94 63.14 28.94C40.46 28.94 31.64 51.44 31.64 71.78C31.64 92.12 40.1 114.62 62.42 114.62C77 114.62 87.62 105.98 91.04 93.56H53.78V68.18H118.58V140H95.36L91.76 129.38ZM157.235 140H125.015L169.655 3.56H205.835L250.475 140H218.255L207.815 105.08H167.675L157.235 140ZM187.655 38.3L175.235 79.88H200.255L187.655 38.3ZM346.3 140H259.18V3.56H289.42V114.62H346.3V140ZM442.452 140H355.332V3.56H385.572V114.62H442.452V140ZM542.204 140H451.484V3.37999L542.204 3.56L648.044 3.37999C672.524 3.37999 688.904 18.86 688.904 41.9C688.904 56.66 681.524 68.36 669.464 74.66C682.424 77.72 688.904 85.46 688.904 98.6V130.46L691.424 140H661.904L658.664 130.46V100.4C658.664 93.74 655.784 88.7 644.984 88.7H589.544V140H559.124V63.32H638.684C651.464 63.32 657.764 57.02 657.764 46.58C657.764 35.06 651.824 28.76 638.684 28.76L542.204 28.94H481.724V59H535.004V84.38H481.724V114.62H542.204V140ZM739.129 88.34L688.009 3.56H723.289L754.249 57.38L785.029 3.56H820.489L769.369 88.34V140H739.129V88.34Z" fill="url(#paint0_linear_339_1918)"/>
<defs>
<linearGradient id="paint0_linear_339_1918" x1="-4" y1="78.5" x2="847" y2="78.5" gradientUnits="userSpaceOnUse">
<stop stop-color="#C21500"/>
<stop offset="1" stop-color="#FFC500"/>
</linearGradient>
</defs>
</svg>
