<svg width="851" height="288" viewBox="0 0 851 288" fill="none" xmlns="http://www.w3.org/2000/svg">
<path d="M39.24 140H9V3.56H39.24V140ZM57.3398 140V3.56H90.2798L133.3 89.06V3.56H163.54V140H130.6L87.5798 54.5V140H57.3398ZM172.433 3.56H276.833V28.94H239.753V140H209.513V28.94H172.433V3.56ZM376.224 140H285.504V3.37999L376.224 3.56L482.064 3.37999C506.544 3.37999 522.924 18.86 522.924 41.9C522.924 56.66 515.544 68.36 503.484 74.66C516.444 77.72 522.924 85.46 522.924 98.6V130.46L525.444 140H495.924L492.684 130.46V100.4C492.684 93.74 489.804 88.7 479.004 88.7H423.564V140H393.144V63.32H472.704C485.484 63.32 491.784 57.02 491.784 46.58C491.784 35.06 485.844 28.76 472.704 28.76L376.224 28.94H315.744V59H369.024V84.38H315.744V114.62H376.224V140ZM569.924 140H539.684V3.56H569.924V140ZM650.483 0.679991C693.683 0.679991 718.163 32.72 718.163 71.78C718.163 110.48 693.143 142.88 650.483 142.88C607.823 142.88 582.803 110.48 582.803 71.78C582.803 33.08 607.823 0.679991 650.483 0.679991ZM650.483 116.06C675.503 116.06 686.843 92.84 686.843 71.78C686.843 50.72 675.503 27.5 650.483 27.5C625.283 27.5 613.943 50.72 613.943 71.78C613.943 92.84 625.283 116.06 650.483 116.06ZM730.934 140V3.56H794.654C818.954 3.56 835.514 19.04 835.514 42.08C835.514 56.66 827.954 68.54 815.894 74.66C828.854 77.72 835.514 85.46 835.514 98.78V130.46L837.854 140H808.514L805.094 130.46V100.58C805.094 93.74 802.214 88.7 791.414 88.7H761.174V140H730.934ZM761.174 63.5H785.294C797.894 63.5 804.194 57.2 804.194 46.58C804.194 35.24 798.254 28.94 785.294 28.94H761.174V63.5Z" fill="white"/>
<path d="M61.56 275H9V138.56L61.56 138.74C95.04 138.74 118.26 166.28 118.26 205.88C118.26 247.28 95.58 275 61.56 275ZM87.12 205.88C87.12 183.92 75.78 166.28 56.52 166.28H39.24V247.28H56.52C76.32 247.28 87.12 229.82 87.12 205.88ZM131.52 275V138.56L222.24 138.74V163.94H161.76V194.18H215.04V219.38H161.76V249.62H222.24V275H131.52ZM288.837 191.66C306.297 196.34 340.137 201.02 340.137 233.78C340.137 264.02 312.417 277.88 285.597 277.88C253.197 277.88 234.297 261.5 231.957 234.68H259.317C260.937 246.56 269.577 251.06 287.217 251.06C301.077 251.06 308.997 246.92 308.997 238.64C308.997 228.92 300.897 226.58 284.157 221.9C262.557 215.78 232.857 211.82 232.857 179.78C232.857 149.72 259.317 135.68 286.137 135.68C321.777 135.68 334.737 156.02 336.177 178.88H308.997C307.737 166.82 300.357 162.5 285.057 162.5C272.457 162.5 264.177 167 264.177 174.92C264.177 183.56 270.117 186.62 288.837 191.66ZM383.771 275H353.531V138.56H383.771V275ZM488.631 264.38C481.431 273.02 470.631 277.88 455.151 277.88C418.251 277.88 397.371 248.18 397.371 206.78C397.371 165.2 417.171 135.68 457.851 135.68C489.171 135.68 512.751 157.1 513.291 188.6H486.111C483.951 174.02 473.511 163.94 460.011 163.94C437.331 163.94 428.511 186.44 428.511 206.78C428.511 227.12 436.971 249.62 459.291 249.62C473.871 249.62 484.491 240.98 487.911 228.56H450.651V203.18H515.451V275H492.231L488.631 264.38ZM531.246 275V138.56H564.186L607.206 224.06V138.56H637.446V275H604.506L561.486 189.5V275H531.246Z" fill="url(#paint0_linear_330_631)"/>
<defs>
<linearGradient id="paint0_linear_330_631" x1="0" y1="213.5" x2="851" y2="213.5" gradientUnits="userSpaceOnUse">
<stop stop-color="#C21500"/>
<stop offset="1" stop-color="#FFC500"/>
</linearGradient>
</defs>
</svg>
