<svg width="262" height="31" viewBox="0 0 262 31" fill="none" xmlns="http://www.w3.org/2000/svg">
<path d="M0.6875 31V0.639997L28.8875 0.679999H50.3675V6.32H7.4075V13H25.6875V18.64H7.4075V31H0.6875ZM28.8875 31V25.36H50.3675V31H28.8875ZM28.8875 18.64V13H50.3675V18.64H28.8875ZM53.8906 31V0.679999H68.0506C73.4506 0.679999 77.1306 4.12 77.1306 9.24C77.1306 12.48 75.4506 15.12 72.7706 16.48C75.6506 17.16 77.1306 18.88 77.1306 21.84V28.88L77.6506 31H71.1306L70.3706 28.88V22.24C70.3706 20.72 69.7306 19.6 67.3306 19.6H60.6106V31H53.8906ZM60.6106 14H65.9706C68.7706 14 70.1706 12.6 70.1706 10.24C70.1706 7.72 68.8506 6.32 65.9706 6.32H60.6106V14ZM85.9238 31H78.7637L88.6838 0.679999H96.7238L106.644 31H99.4838L97.1638 23.24H88.2438L85.9238 31ZM92.6838 8.4L89.9238 17.64H95.4838L92.6838 8.4ZM108.578 31V0.679999H115.898L125.458 19.68V0.679999H132.178V31H124.858L115.298 12V31H108.578ZM147.914 31H136.234V0.679999L147.914 0.719999C155.354 0.719999 160.514 6.84 160.514 15.64C160.514 24.84 155.474 31 147.914 31ZM153.594 15.64C153.594 10.76 151.074 6.84 146.794 6.84H142.954V24.84H146.794C151.194 24.84 153.594 20.96 153.594 15.64ZM167.252 31H160.092L170.012 0.679999H178.052L187.972 31H180.812L178.492 23.24H169.572L167.252 31ZM174.012 8.4L171.252 17.64H176.812L174.012 8.4ZM209.266 31H189.906V0.679999H196.626V25.36H209.266V31ZM211.273 31V0.679999L231.433 0.719999V6.32H217.993V13.04H229.833V18.64H217.993V25.36H231.433V31H211.273ZM232.633 31L242.993 15.84L232.633 0.679999H240.553L246.913 10.76L253.273 0.679999H261.193L250.833 15.84L261.193 31H253.273L246.913 20.88L240.553 31H232.633Z" fill="white"/>
</svg>
