<svg width="701" height="120" viewBox="0 0 701 120" fill="none" xmlns="http://www.w3.org/2000/svg">
<path d="M0.5 117V3.3H37.4L55.4 74.25L73.4 3.3H110.15V117H84.95V43.05L66.2 117H44.45L25.7 43.05V117H0.5ZM190.855 0.899993C226.855 0.899993 247.255 27.6 247.255 60.15C247.255 92.4 226.405 119.4 190.855 119.4C155.305 119.4 134.455 92.4 134.455 60.15C134.455 27.9 155.305 0.899993 190.855 0.899993ZM190.855 97.05C211.705 97.05 221.155 77.7 221.155 60.15C221.155 42.6 211.705 23.25 190.855 23.25C169.855 23.25 160.405 42.6 160.405 60.15C160.405 77.7 169.855 97.05 190.855 97.05ZM315.196 117H271.396V3.3L315.196 3.45C343.096 3.45 362.446 26.4 362.446 59.4C362.446 93.9 343.546 117 315.196 117ZM336.496 59.4C336.496 41.1 327.046 26.4 310.996 26.4H296.596V93.9H310.996C327.496 93.9 336.496 79.35 336.496 59.4ZM462.596 117H386.996V3.14999L462.596 3.3L550.796 3.14999C571.196 3.14999 584.846 16.05 584.846 35.25C584.846 47.55 578.696 57.3 568.646 62.55C579.446 65.1 584.846 71.55 584.846 82.5V109.05L586.946 117H562.346L559.646 109.05V84C559.646 78.45 557.246 74.25 548.246 74.25H502.046V117H476.696V53.1H542.996C553.646 53.1 558.896 47.85 558.896 39.15C558.896 29.55 553.946 24.3 542.996 24.3L462.596 24.45H412.196V49.5H456.596V70.65H412.196V95.85H462.596V117ZM612.313 117V3.3H639.763L675.613 74.55V3.3H700.813V117H673.363L637.513 45.75V117H612.313Z" fill="white"/>
</svg>
