<svg width="104" height="31" viewBox="0 0 104 31" fill="none" xmlns="http://www.w3.org/2000/svg">
<path d="M6.72 30.96H2.98023e-08V0.639997H9.32L30.8 25.32H50.08V30.96H28.28L6.72 6.2V30.96ZM50.08 6.28H31.52V0.639997H50.08V6.28ZM31.52 12.96H50.08V18.6H31.52V12.96ZM51.5547 31L61.9147 15.84L51.5547 0.679999H59.4747L65.8347 10.76L72.1947 0.679999H80.1147L69.7547 15.84L80.1147 31H72.1947L65.8347 20.88L59.4747 31H51.5547ZM80.0294 0.679999H103.229V6.32H94.9894V31H88.2694V6.32H80.0294V0.679999Z" fill="white"/>
</svg>
