<svg width="859" height="120" viewBox="0 0 859 120" fill="none" xmlns="http://www.w3.org/2000/svg">
<path d="M25.7 117H0.5V3.3H53.6C73.85 3.3 87.65 17.7 87.65 39.3C87.65 59.85 73.55 74.25 53.6 74.25H25.7V117ZM25.7 24.45V53.25H45.8C56.3 53.25 61.55 48 61.55 39.15C61.55 29.7 56.6 24.45 45.8 24.45H25.7ZM110.387 117V3.3H163.487C183.737 3.3 197.537 16.2 197.537 35.4C197.537 47.55 191.237 57.45 181.187 62.55C191.987 65.1 197.537 71.55 197.537 82.65V109.05L199.487 117H175.037L172.187 109.05V84.15C172.187 78.45 169.787 74.25 160.787 74.25H135.587V117H110.387ZM135.587 53.25H155.687C166.187 53.25 171.437 48 171.437 39.15C171.437 29.7 166.487 24.45 155.687 24.45H135.587V53.25ZM277.011 0.899993C313.011 0.899993 333.411 27.6 333.411 60.15C333.411 92.4 312.561 119.4 277.011 119.4C241.461 119.4 220.611 92.4 220.611 60.15C220.611 27.9 241.461 0.899993 277.011 0.899993ZM277.011 97.05C297.861 97.05 307.311 77.7 307.311 60.15C307.311 42.6 297.861 23.25 277.011 23.25C256.011 23.25 246.561 42.6 246.561 60.15C246.561 77.7 256.011 97.05 277.011 97.05ZM389.803 119.4C370.153 119.4 350.803 109.95 350.803 72.15H376.753C376.753 91.05 381.553 95.85 389.353 95.85C398.953 95.85 401.503 88.35 401.503 81.6V3.3H427.453V81.6C427.453 103.65 416.053 119.4 389.803 119.4ZM455.135 117V3.3L530.735 3.45V24.45H480.335V49.65H524.735V70.65H480.335V95.85H530.735V117H455.135ZM601.557 119.4C567.657 119.4 551.457 94.65 551.457 60.15C551.457 25.5 567.657 0.899993 601.557 0.899993C627.657 0.899993 647.607 18.75 648.057 45H625.407C623.607 32.85 614.607 24.45 603.357 24.45C584.457 24.45 577.407 43.2 577.407 60.15C577.407 77.1 584.457 95.85 603.357 95.85C614.607 95.85 623.607 87.45 625.407 75.3H648.057C647.607 101.55 627.657 119.4 601.557 119.4ZM664.911 3.3H751.911V24.45H721.011V117H695.811V24.45H664.911V3.3ZM816.137 47.55C830.687 51.45 858.887 55.35 858.887 82.65C858.887 107.85 835.787 119.4 813.437 119.4C786.437 119.4 770.687 105.75 768.737 83.4H791.537C792.887 93.3 800.087 97.05 814.787 97.05C826.337 97.05 832.937 93.6 832.937 86.7C832.937 78.6 826.187 76.65 812.237 72.75C794.237 67.65 769.487 64.35 769.487 37.65C769.487 12.6 791.537 0.899993 813.887 0.899993C843.587 0.899993 854.387 17.85 855.587 36.9H832.937C831.887 26.85 825.737 23.25 812.987 23.25C802.487 23.25 795.587 27 795.587 33.6C795.587 40.8 800.537 43.35 816.137 47.55Z" fill="black"/>
</svg>
