<svg width="417" height="80" viewBox="0 0 417 80" fill="none" xmlns="http://www.w3.org/2000/svg">
<path d="M32 31.7C41.7 34.3 60.5 36.9 60.5 55.1C60.5 71.9 45.1 79.6 30.2 79.6C12.2 79.6 1.7 70.5 0.4 55.6H15.6C16.5 62.2 21.3 64.7 31.1 64.7C38.8 64.7 43.2 62.4 43.2 57.8C43.2 52.4 38.7 51.1 29.4 48.5C17.4 45.1 0.9 42.9 0.9 25.1C0.9 8.4 15.6 0.599995 30.5 0.599995C50.3 0.599995 57.5 11.9 58.3 24.6H43.2C42.5 17.9 38.4 15.5 29.9 15.5C22.9 15.5 18.3 18 18.3 22.4C18.3 27.2 21.6 28.9 32 31.7ZM118.341 78H67.9414V2.09999L118.341 2.2L177.141 2.09999C190.741 2.09999 199.841 10.7 199.841 23.5C199.841 31.7 195.741 38.2 189.041 41.7C196.241 43.4 199.841 47.7 199.841 55V72.7L201.241 78H184.841L183.041 72.7V56C183.041 52.3 181.441 49.5 175.441 49.5H144.641V78H127.741V35.4H171.941C179.041 35.4 182.541 31.9 182.541 26.1C182.541 19.7 179.241 16.2 171.941 16.2L118.341 16.3H84.7414V33H114.341V47.1H84.7414V63.9H118.341V78ZM226.895 78L202.095 2.2H219.995L236.895 58.7L253.895 2.2H271.795L246.995 78H226.895ZM293.335 78H276.535V2.2H293.335V78ZM334.291 79.6C311.691 79.6 300.891 63.1 300.891 40.1C300.891 17 311.691 0.599995 334.291 0.599995C351.691 0.599995 364.991 12.5 365.291 30H350.191C348.991 21.9 342.991 16.3 335.491 16.3C322.891 16.3 318.191 28.8 318.191 40.1C318.191 51.4 322.891 63.9 335.491 63.9C342.991 63.9 348.991 58.3 350.191 50.2H365.291C364.991 67.7 351.691 79.6 334.291 79.6ZM389.527 78H372.727V2.2H389.527V78ZM416.382 78H399.582V2.2H416.382V78Z" fill="white"/>
</svg>
