<svg width="101" height="291" viewBox="0 0 101 291" fill="none" xmlns="http://www.w3.org/2000/svg">
<path d="M50.5 282.583C67.8804 282.583 82.0625 268.401 82.0625 251.021V229.979C82.0625 212.599 67.8804 198.417 50.5 198.417C33.1196 198.417 18.9375 212.599 18.9375 229.979V251.021C18.9375 268.401 33.1196 282.583 50.5 282.583Z" stroke="white" stroke-width="1.5" stroke-linecap="round" stroke-linejoin="round"/>
<path d="M50.5 236.292C47.0071 236.292 44.1875 233.472 44.1875 229.979V221.563C44.1875 218.07 47.0071 215.25 50.5 215.25C53.9508 215.25 56.8125 218.07 56.8125 221.563V229.979C56.8125 233.472 53.9508 236.292 50.5 236.292Z" stroke="white" stroke-width="1.5" stroke-linecap="round" stroke-linejoin="round"/>
<path d="M50.5 215.25V198.417" stroke="white" stroke-width="1.5" stroke-linecap="round" stroke-linejoin="round"/>
<path d="M60.8 164.68C60.8 170.77 58.4 174.19 53.72 174.19H53.54V169.69H54.08C55.94 169.69 56.69 168.76 56.69 164.68C56.69 161.08 56.15 160.24 54.8 160.24C53.57 160.24 53.12 160.93 52.76 163L51.95 168.64C51.38 172.24 49.58 174.37 46.31 174.37C43.28 174.37 40.1 171.91 40.1 165.16C40.1 158.98 42.95 156.1 47.18 156.1H47.36V160.63H46.94C45.02 160.63 44.21 161.62 44.21 165.61C44.21 168.85 44.84 169.84 46.13 169.84C47.3 169.84 47.72 169.18 48.02 167.5L48.92 161.86C49.64 157.36 51.83 155.74 54.59 155.74C57.86 155.74 60.8 158.29 60.8 164.68ZM60.8 143.617C60.8 150.247 56.72 154.357 50.45 154.357C44.18 154.357 40.1 150.247 40.1 143.617C40.1 137.377 43.22 133.357 48.32 133.357H48.77V138.367H48.32C45.68 138.367 44.42 139.867 44.42 143.527C44.42 147.937 45.98 149.587 50.45 149.587C54.92 149.587 56.48 147.937 56.48 143.527C56.48 139.867 55.22 138.367 52.58 138.367H52.13V133.357H52.58C57.68 133.357 60.8 137.347 60.8 143.617ZM60.5 126.907V131.407H40.4V120.307C40.4 115.357 42.59 112.537 46.43 112.537C49.7 112.537 51.65 114.427 52.01 118.207H52.25C52.73 116.407 53.69 115.717 55.1 114.967L60.5 112.057V117.277L55.28 120.037C53.72 120.847 53.21 121.597 53.21 123.937V126.907H60.5ZM44.45 126.907H49.82V120.337C49.82 118.207 49.22 117.247 47.12 117.247C45.14 117.247 44.45 118.207 44.45 120.337V126.907ZM60.8 100.286C60.8 106.946 56.72 111.086 50.45 111.086C44.18 111.086 40.1 106.946 40.1 100.286C40.1 93.4759 44.18 89.3659 50.45 89.3659C56.72 89.3659 60.8 93.4759 60.8 100.286ZM56.48 100.286C56.48 95.8759 54.92 94.1659 50.45 94.1659C45.98 94.1659 44.42 95.8759 44.42 100.286C44.42 104.696 45.98 106.316 50.45 106.316C54.92 106.316 56.48 104.696 56.48 100.286ZM60.5 70.9335V87.4035H40.4V82.9035H56.45V70.9335H60.5ZM60.5 52.6523V69.1223H40.4V64.6223H56.45V52.6523H60.5Z" fill="#D9D9D9"/>
</svg>
